<?xml version="1.0" encoding="UTF-8" standalone="no"?>
<!-- Created with Inkscape (http://www.inkscape.org/) -->

<svg
   width="45.010281mm"
   height="41.276066mm"
   viewBox="0 0 45.010281 41.276066"
   version="1.1"
   id="svg1"
   xmlns="http://www.w3.org/2000/svg"
   xmlns:svg="http://www.w3.org/2000/svg">
  <defs
     id="defs1" />
  <g
     id="layer1"
     transform="translate(-35.110314,-70.261436)">
    <path
       id="path56"
       style="fill:#f9f9f9;stroke:none;stroke-width:7.80319;stroke-linecap:round;stroke-linejoin:round;stroke-dasharray:none"
       d="m 50.696281,70.393035 c -0.36785,0.39139 -0.68459,0.80148 -0.9389,1.16078 -0.35824,0.50619 -0.58925,0.95822 -0.68965,1.24099 -0.047,0.11855 -0.16617,0.23006 -0.2881,0.25363 -4.78157,0.92472 -9.39232,2.58176 -13.66932,4.913 1.26877,8.31171 4.7281,16.1356 10.02235,22.667445 0.0737,-0.12519 4.74579,-8.055085 6.89975,-12.610045 0.13197,-0.27904 0.14796,-0.46941 -0.27202,-0.73532 -0.36526,-0.23125 -1.09611,-0.76786 -1.50417,-1.28622 -1.06685,-1.35526 -2.05818,-3.88264 -2.34538,-4.61227 -0.0385,-0.0979 0.0133,-0.15934 0.11354,-0.13492 0.40718,0.0992 1.44878,0.3729 2.64332,0.84275 0.22202,0.0873 0.2086,0.13329 -0.0274,0.0975 -0.18414,-0.0279 -0.36489,-0.0548 -0.53795,-0.0792 -0.12667,-0.0178 -0.33174,-0.0453 -0.45871,-0.0609 -0.15207,-0.0189 -0.29715,-0.0354 -0.43891,-0.051 -0.19125,-0.0211 -0.27425,0.10027 -0.18821,0.27204 0.46868,0.93575 0.96722,2.09471 1.73883,2.92677 0.57709,0.62228 1.32896,1.0755 2.08479,1.46147 1.59417,0.81409 1.25945,0.96532 0.9043,1.585 l -6.95236,12.231355 c -0.24244,0.42654 -0.39962,0.8353 -0.31297,1.34558 0.0805,0.47419 0.40604,0.8861 0.72009,1.25041 2.65905,3.08465 5.65489,5.36594 8.92738,7.48342 -0.33509,-0.77094 -1.13809,-2.15297 -1.53043,-3.3004 -0.77768,-2.27447 -1.46535,-4.63033 -1.6069,-7.02992 -0.0614,-1.038875 0.13506,-2.082565 0.33305,-3.104225 0.12754,-0.65798 0.37137,-1.28803 0.54805,-1.93454 0.19775,-0.72364 0.47546,-1.43887 0.573,-2.17631 0.0479,-0.36233 0.0656,-0.64898 0.083,-0.93572 0.15797,0.29582 0.3162,0.5916 0.50672,0.83666 0.15151,0.19489 0.35031,0.35177 0.40156,0.38633 0.56573,0.38153 0.51367,0.35042 0.0366,0.80617 -1.29446,1.23658 -1.84385,4.958 -1.70837,6.959185 0.0229,0.33659 0.12135,0.87585 0.18974,1.20622 1.18377,5.72414 3.64254,9.24408 3.6598,9.26875 12.17306,-7.29143 20.43396,-19.658305 22.50819,-33.695605 -6.91519,-3.74056 -14.65302,-5.70016 -22.51504,-5.70192 -0.76319,0.0208 -1.89298,0.0214 -2.65424,0.0789 -0.17958,0.0133 -0.37948,0.17753 -0.46254,0.3214 -0.12873,0.22298 -0.41599,0.67821 -0.52857,0.97083 -0.42776,1.10945 -1.21758,2.95595 -0.7095,4.69945 0.79639,2.73288 2.76591,5.3577 6.29522,8.05682 1.57158,1.20191 3.41986,2.26224 5.23571,2.91764 3.18937,1.14744 5.21112,1.23362 6.11682,1.18844 0.44168,-0.022 2.29059,-0.42392 2.34449,-0.24818 0.054,0.17573 -1.64406,0.76196 -2.30937,0.85219 -1.03803,0.14081 -2.27705,0.38234 -6.89317,-1.1977 -1.26318,-0.43238 -2.47111,-1.03208 -3.62932,-1.72894 -0.1535,-0.0923 -0.17935,-0.061 -0.0625,0.0748 0.14642,0.17005 0.29724,0.35118 0.45491,0.54634 1.81738,2.24946 3.33807,3.75163 5.61428,4.78753 0.12268,0.0557 0.17896,0.19847 0.11959,0.31926 -0.32108,0.65371 -1.36351,2.50242 -2.6799,2.01012 -0.5021,-0.18778 -3.5623,-1.30784 -4.23238,-1.72674 -0.1759,-0.11 -0.13596,-0.16925 0.0419,-0.12032 0.77543,0.2133 3.51812,1.20415 3.87087,1.06875 0.51048,-0.19604 0.95574,-0.67665 1.23746,-1.15441 0.13212,-0.22408 0.0671,-0.50886 -0.15239,-0.64845 -1.01095,-0.64307 -1.59542,-1.35509 -2.48373,-2.28703 -1.00985,-1.05943 -1.83944,-2.09147 -2.23336,-2.56484 -0.33596,-0.40371 -1.6839,-1.59848 -2.45435,-2.465 -1.66204,-1.86927 -3.49266,-3.67303 -4.6618,-5.88022 -2.31673,-4.37545 -2.08333,-8.0107 -1.9903,-8.8489 0.0158,-0.2207 0.0501,-0.43645 0.10204,-0.64766 0.0699,-0.28438 -0.004,-0.33436 -0.20505,-0.12091 z m 3.58904,0.71037 c -0.22136,0.0721 -0.50203,0.19415 -0.76448,0.38482 -0.3166,0.23134 -0.5617,0.53649 -0.80095,0.84333 -0.0473,0.0606 -0.14785,0.11899 -0.22466,0.13049 -0.17744,0.0267 -0.35473,0.0543 -0.53186,0.083 -0.16353,0.0175 -0.16002,0.082 -0.15548,0.15506 0.0161,0.25736 0.17906,1.62682 0.55556,2.20111 0.0808,0.12342 0.13522,0.22505 0.21726,-0.0519 0.20273,-0.83765 0.49031,-1.52849 0.75153,-2.02921 0.29255,-0.55956 0.78358,-1.18789 1.06929,-1.53433 0.12223,-0.14819 0.0681,-0.24239 -0.1162,-0.18236 z" />
  </g>
</svg>
